<svg width="28" height="36" viewBox="0 0 28 36" fill="none" xmlns="http://www.w3.org/2000/svg">
<path d="M27.6261 8.97438L19.067 0.37543C18.8284 0.135794 18.5023 0 18.1642 0H1.27273C0.56875 0 0 0.571133 0 1.27806V34.5076C0 35.2145 0.56875 35.7857 1.27273 35.7857H26.7273C27.4312 35.7857 28 35.2145 28 34.5076V9.87701C28 9.53752 27.8648 9.21401 27.6261 8.97438ZM9.54545 13.4995C10.4244 13.4995 11.1364 14.2144 11.1364 15.0971C11.1364 15.9797 10.4244 16.6947 9.54545 16.6947C8.66648 16.6947 7.95455 15.9797 7.95455 15.0971C7.95455 14.2144 8.66648 13.4995 9.54545 13.4995ZM21.3182 25.2417H6.68182C6.41534 25.2417 6.26818 24.9341 6.43125 24.7265L10.4006 19.6462C10.4303 19.608 10.4684 19.5771 10.5118 19.5559C10.5552 19.5346 10.6028 19.5236 10.6511 19.5236C10.6994 19.5236 10.7471 19.5346 10.7905 19.5559C10.8339 19.5771 10.8719 19.608 10.9017 19.6462L12.5364 21.739L15.6307 17.777C15.6604 17.7388 15.6985 17.7079 15.7419 17.6867C15.7853 17.6655 15.833 17.6544 15.8812 17.6544C15.9295 17.6544 15.9772 17.6655 16.0206 17.6867C16.064 17.7079 16.1021 17.7388 16.1318 17.777L21.5608 24.7265C21.7318 24.9341 21.5807 25.2417 21.3182 25.2417ZM17.5795 10.4641V2.94753L25.0648 10.4641H17.5795Z" fill="#EB5757"/>
</svg>
